<svg width="243" height="243" viewBox="0 0 243 243" fill="none" xmlns="http://www.w3.org/2000/svg">
<path fill-rule="evenodd" clip-rule="evenodd" d="M121.5 238C185.841 238 238 185.841 238 121.5C238 57.1588 185.841 5 121.5 5C57.1588 5 5 57.1588 5 121.5C5 185.841 57.1588 238 121.5 238ZM121.5 243C188.603 243 243 188.603 243 121.5C243 54.3974 188.603 0 121.5 0C54.3974 0 0 54.3974 0 121.5C0 188.603 54.3974 243 121.5 243Z" fill="white"/>
<path fill-rule="evenodd" clip-rule="evenodd" d="M108 150C131.196 150 150 131.196 150 108C150 84.804 131.196 66 108 66C84.804 66 66 84.804 66 108C66 131.196 84.804 150 108 150ZM108 170C142.242 170 170 142.242 170 108C170 73.7583 142.242 46 108 46C73.7583 46 46 73.7583 46 108C46 142.242 73.7583 170 108 170Z" fill="white"/>
<path d="M143.961 158.104C140.056 154.198 140.056 147.867 143.961 143.961C147.867 140.056 154.198 140.056 158.104 143.961L200.53 186.388C204.435 190.293 204.435 196.625 200.53 200.53C196.625 204.435 190.293 204.435 186.388 200.53L143.961 158.104Z" fill="white"/>
<path d="M94.8975 96.7L90.4975 112.4C90.4641 112.5 90.4808 112.6 90.5475 112.7C90.6141 112.8 90.6975 112.85 90.7975 112.85H99.0975C99.1975 112.85 99.2808 112.8 99.3475 112.7C99.4141 112.6 99.4308 112.5 99.3975 112.4L94.9975 96.7C94.9975 96.6667 94.9808 96.65 94.9475 96.65C94.9141 96.65 94.8975 96.6667 94.8975 96.7ZM81.9475 127C81.2475 127 80.6975 126.717 80.2975 126.15C79.8975 125.583 79.8141 124.967 80.0475 124.3L90.3975 93.2C90.6975 92.4 91.1808 91.75 91.8475 91.25C92.5475 90.75 93.3141 90.5 94.1475 90.5H95.9475C96.8141 90.5 97.5808 90.75 98.2475 91.25C98.9475 91.75 99.4308 92.4 99.6975 93.2L110.047 124.3C110.281 124.967 110.197 125.583 109.797 126.15C109.397 126.717 108.847 127 108.147 127H106.347C105.547 127 104.797 126.75 104.097 126.25C103.431 125.717 102.981 125.05 102.747 124.25L101.147 118.6C101.114 118.333 100.931 118.2 100.597 118.2H89.2975C88.9975 118.2 88.8141 118.333 88.7475 118.6L87.1475 124.25C86.9475 125.05 86.4975 125.717 85.7975 126.25C85.1308 126.75 84.3808 127 83.5475 127H81.9475ZM126.275 114.5C121.509 114.5 119.125 115.967 119.125 118.9C119.125 119.967 119.425 120.833 120.025 121.5C120.659 122.167 121.459 122.5 122.425 122.5C124.325 122.5 125.859 121.917 127.025 120.75C128.192 119.55 128.775 117.917 128.775 115.85V114.95C128.775 114.65 128.625 114.5 128.325 114.5H126.275ZM120.625 127.5C118.359 127.5 116.475 126.767 114.975 125.3C113.509 123.8 112.775 121.867 112.775 119.5C112.775 116.6 113.875 114.35 116.075 112.75C118.309 111.15 121.709 110.35 126.275 110.35H128.325C128.625 110.35 128.775 110.2 128.775 109.9V109.5C128.775 107.967 128.409 106.9 127.675 106.3C126.942 105.667 125.642 105.35 123.775 105.35C121.842 105.35 119.475 105.7 116.675 106.4C116.075 106.567 115.525 106.467 115.025 106.1C114.525 105.7 114.275 105.183 114.275 104.55C114.275 103.783 114.509 103.1 114.975 102.5C115.442 101.867 116.042 101.483 116.775 101.35C119.309 100.783 121.692 100.5 123.925 100.5C128.192 100.5 131.175 101.267 132.875 102.8C134.575 104.333 135.425 107.017 135.425 110.85V124.15C135.425 124.917 135.142 125.583 134.575 126.15C134.042 126.717 133.392 127 132.625 127H132.075C131.275 127 130.592 126.733 130.025 126.2C129.459 125.633 129.159 124.95 129.125 124.15V123.45C129.125 123.417 129.109 123.4 129.075 123.4C129.009 123.4 128.975 123.417 128.975 123.45C126.942 126.15 124.159 127.5 120.625 127.5Z" fill="white"/>
</svg>
